# AST/ASF file generated using VICON BodyLanguage
# -----------------------------------------------
:version 1.10
:name VICON
:units
  mass 1.0
  length 0.45
  angle deg
:documentation
   .ast/.asf automatically generated from VICON data using
   VICON BodyBuilder and BodyLanguage model FoxedUp or BRILLIANT.MOD
:root
   order TX TY TZ RX RY RZ
   axis XYZ
   position 0 0 0  
   orientation 0 0 0 
:bonedata
  begin
     id 1 
     name lhipjoint
     direction 0.646657 -0.683706 0.338203 
     length 2.4948 
     axis 0 0 0  XYZ
  end
  begin
     id 2 
     name lfemur
     direction 0.34202 -0.939693 0  
     length 6.79491  
     axis 0 0 20  XYZ
    dof rx ry rz
    limits (-160.0 20.0)
           (-70.0 70.0)
           (-60.0 70.0)
  end
  begin
     id 3 
     name ltibia
     direction 0.34202 -0.939693 0   
     length 7.56807   
     axis 0 0 20   XYZ
    dof rx
    limits (-10.0 170.0)
  end
  begin
     id 4 
     name lfoot
     direction 0.0679796 -0.186772 0.980048   
     length 2.53018   
     axis -90 7.62852e-016 20   XYZ
    dof rx rz
    limits (-45.0 90.0)
           (-70.0 20.0)
  end
  begin
     id 5 
     name ltoes
     direction 1.53625e-011 -4.21881e-011 1   
     length 1.26912   
     axis -90 7.62852e-016 20   XYZ
    dof rx
    limits (-90.0 20.0)
  end
  begin
     id 6 
     name rhipjoint
     direction -0.618868 -0.704065 0.348274   
     length 2.42265  
     axis 0 0 0  XYZ 
  end
  begin
     id 7 
     name rfemur
     direction -0.34202 -0.939693 0   
     length 6.73814   
     axis 0 0 -20   XYZ
    dof rx ry rz
    limits (-160.0 20.0)
           (-70.0 70.0)
           (-70.0 60.0)
  end
  begin
     id 8 
     name rtibia
     direction -0.34202 -0.939693 0   
     length 7.66799   
     axis 0 0 -20   XYZ
    dof rx
    limits (-10.0 170.0)
 end
 begin
     id 9 
     name rfoot
     direction -0.0727352 -0.199838 0.977125   
     length 2.57224  
     axis -90 -7.62852e-016 -20   XYZ
    dof rx rz
    limits (-45.0 90.0)
           (-20.0 70.0)
  end
  begin
     id 10 
     name rtoes
     direction -1.53501e-011 -4.21858e-011 1   
     length 1.28858   
     axis -90 -7.62852e-016 -20   XYZ
    dof rx
    limits (-90.0 20.0)
  end
  begin
     id 11 
     name lowerback
     direction -0.0172471 0.995767 -0.0902851   
     length 2.20206   
     axis 0 0 0   XYZ
    dof rx ry rz
    limits (-20.0 45.0)
           (-30.0 30.0)
           (-30.0 30.0)
  end
  begin
     id 12 
     name upperback
     direction -0.000110737 0.999714 0.0239043   
     length 2.19523   
     axis 0 0 0   XYZ
    dof rx ry rz
    limits (-20.0 45.0)
           (-30.0 30.0)
           (-30.0 30.0)
  end
  begin
     id 13 
     name thorax
     direction 0.00704869 0.997783 0.0661741   
     length 2.21977   
     axis 0 0 0   XYZ
    dof rx ry rz
    limits (-20.0 45.0)
           (-30.0 30.0)
           (-30.0 30.0)
  end
  begin
     id 14 
     name lowerneck
     direction -0.00407501 0.995527 0.0943846   
     length 1.83142   
     axis 0 0 0   XYZ
    dof rx ry rz
    limits (-20.0 45.0)
           (-30.0 30.0)
           (-30.0 30.0)
  end
  begin
     id 15 
     name upperneck
     direction 0.0640586 0.986486 -0.150807   
     length 1.84616   
     axis 0 0 0   XYZ
    dof rx ry rz
    limits (-20.0 45.0)
           (-30.0 30.0)
           (-30.0 30.0)
  end
  begin
     id 16
     name head
     direction 0.0188017 0.99791 -0.0618239  
     length 1.85932  
     axis 0 0 0   XYZ
    dof rx ry rz
    limits (-20.0 45.0)
           (-30.0 30.0)
           (-30.0 30.0)
  end
  begin
     id 17 
     name lclavicle
     direction 0.976074 0.206905 0.066852  
     length 3.81043  
     axis 0 0 0   XYZ
    dof ry rz
    limits (-20.0 10.0)
           (0.0 20.0)
  end
  begin
     id 18 
     name lhumerus
     direction 1 -4.48971e-011 1.86916e-027   
     length 5.37587   
     axis 180 -30 -90   XYZ
    dof rx ry rz
    limits (-60.0 90.0)
           (-90.0 90.0)
           (-90.0 90.0)
  end
  begin
     id 19
     name lradius
     direction 1 -4.48968e-011 1.69187e-027   
     length 3.35977   
     axis 180 -30 -90   XYZ
    dof rx
    limits (-10.0 170.0)
  end
  begin
     id 20
     name lwrist
     direction 1 -4.48968e-011 5.8978e-027   
     length 1.67988   
     axis -3.27506e-015 90 90   XYZ
    dof ry
    limits (-180.0 0.0)
 end
  begin
     id 21 
     name lhand
     direction 1 -4.49028e-011 1.18071e-026   
     length 0.561859   
     axis -7.52654e-015 90 90   XYZ
    dof rx rz
    limits (-90.0 90.0)
           (-45.0 45.0)
  end
  begin
     id 22 
     name lfingers
     direction 1 -4.48927e-011 2.35758e-026   
     length 0.452985   
     axis -1.50534e-014 90 90   XYZ
    dof rx
    limits (0.0 90.0)
  end
  begin
     id 23
     name lthumb
     direction 0.707107 -6.34898e-011 0.707107   
     length 0.650399   
     axis -90 45 5.69224e-014   XYZ
    dof rx rz
    limits (-45.0 45.0)
           (-45.0 45.0)
  end
  begin
     id 24 
     name rclavicle
     direction -0.988403 0.151789 0.00439714   
     length 3.6942  
     axis 0 0 0   XYZ 
    dof ry rz
    limits (-10.0 20.0)
           (-20.0 0.0)
  end
  begin
     id 25 
     name rhumerus
     direction -1 -4.48978e-011 1.62495e-027  
     length 5.22819   
     axis 180 30 90   XYZ
    dof rx ry rz
    limits (-90.0 60.0)
           (-90.0 90.0)
           (-90.0 90.0)
  end
  begin
     id 26 
     name rradius
     direction -1 -4.48961e-011 3.47796e-027   
     length 3.40764   
     axis 180 30 90   XYZ
    dof rx
    limits (-10.0 170.0)
  end
  begin
     id 27 
     name rwrist
     direction -1 -4.48949e-011 5.89602e-027   
     length 1.70382   
     axis -3.27506e-015 -90 -90   XYZ
    dof ry
    limits (-180.0 0.0)
  end
  begin
     id 28
     name rhand
     direction -1 -4.48977e-011 1.17973e-026   
     length 0.583255   
     axis -7.52654e-015 -90 -90   XYZ
    dof rx rz
    limits (-90.0 90.0)
           (-45.0 45.0)
  end
  begin
     id 29
     name rfingers
     direction -1 -4.49099e-011 2.36408e-026   
     length 0.470235   
     axis -1.50534e-014 -90 -90   XYZ
    dof rx
    limits (0.0 90.0)
  end
  begin
     id 30
     name rthumb
     direction -0.707107 -6.35011e-011 0.707107   
     length 0.675167   
     axis -90 -45 -5.69224e-014   XYZ
    dof rx rz
    limits (-45.0 45.0)
           (-45.0 45.0)
  end
:hierarchy
  begin
    root lhipjoint rhipjoint lowerback
    lhipjoint lfemur
    lfemur ltibia
    ltibia lfoot
    lfoot ltoes
    rhipjoint rfemur
    rfemur rtibia
    rtibia rfoot
    rfoot rtoes
    lowerback upperback
    upperback thorax
    thorax lowerneck lclavicle rclavicle
    lowerneck upperneck
    upperneck head
    lclavicle lhumerus
    lhumerus lradius
    lradius lwrist
    lwrist lhand lthumb
    lhand lfingers
    rclavicle rhumerus
    rhumerus rradius
    rradius rwrist
    rwrist rhand rthumb
    rhand rfingers
  end

#!OML:ASF G:\JayActor3\Patient Classification 1\Patient 1\Session 2\male.ASF
:FULLY-SPECIFIED
:DEGREES
52
root 50.5612 16.5886 -7.71213 54.2972 -88.0053 -55.9791
lowerback 0.430303 0.2229 0.216435
upperback 2.78444 0.252101 0.590444
thorax 2.61196 0.110438 0.488514
lowerneck -9.74727 -3.0479 -3.07019
upperneck 5.72333 -4.48262 8.92658
head 3.57585 -1.90136 2.94986
rclavicle -3.21783e-015 -1.68967e-015
rhumerus -33.8902 -8.45698 -84.8269
rradius 29.6887
rwrist -4.31808
rhand -24.1524 3.05657
rfingers 7.12502
rthumb 2.33013 -26.9105
lclavicle -3.21783e-015 -1.68967e-015
lhumerus -29.276 8.19913 85.3104
lradius 26.3598
lwrist 9.13284
lhand -18.1702 16.9344
lfingers 7.12502
lthumb 8.10607 46.759
rfemur -8.72322 -1.27906 24.3105
rtibia 35.4442
rfoot -27.1284 -10.0344
rtoes 18.5983
lfemur -5.13688 3.86203 -19.3999
ltibia 27.526
lfoot -17.3033 8.86451
ltoes -6.60734
53
root 50.5617 16.5887 -7.71289 54.653 -88.0148 -56.3243
lowerback 0.429569 0.225319 0.209
upperback 2.77517 0.255594 0.592773
thorax 2.60275 0.112069 0.495108
lowerneck -9.74671 -3.04649 -3.07054
upperneck 5.72498 -4.48056 8.92432
head 3.57607 -1.90041 2.94936
rclavicle -4.72114e-016 -1.49089e-016
rhumerus -33.8932 -8.44202 -84.8292
rradius 29.6996
rwrist -4.33011
rhand -24.1502 3.06544
rfingers 7.12502
rthumb 2.33227 -26.9016
lclavicle -4.72114e-016 -1.49089e-016
lhumerus -29.3017 8.14947 85.324
lradius 26.3959
lwrist 9.18988
lhand -18.1738 16.9667
lfingers 7.12502
lthumb 8.10257 46.7913
rfemur -8.74514 -1.25634 24.3168
rtibia 35.4557
rfoot -27.1297 -10.0488
rtoes 18.5933
lfemur -5.15409 3.87863 -19.3974
ltibia 27.5334
lfoot -17.3004 8.86337
ltoes -6.61421
54
root 50.5624 16.5888 -7.71371 54.9618 -88.0255 -56.6236
lowerback 0.43218 0.227552 0.198815
upperback 2.76506 0.258918 0.594311
thorax 2.59078 0.11357 0.50241
lowerneck -9.74361 -3.04601 -3.06804
upperneck 5.72508 -4.47992 8.92058
head 3.5754 -1.90028 2.94789
rclavicle 2.31708e-015 3.37934e-015
rhumerus -33.8962 -8.43075 -84.8306
rradius 29.7077
rwrist -4.33667
rhand -24.1478 3.076
rfingers 7.12502
rthumb 2.3346 -26.891
lclavicle 2.31708e-015 3.37934e-015
lhumerus -29.3299 8.08957 85.3397
lradius 26.4345
lwrist 9.25447
lhand -18.1768 16.9992
lfingers 7.12502
lthumb 8.09969 46.824
rfemur -8.76585 -1.23628 24.3205
rtibia 35.4662
rfoot -27.1309 -10.0579
rtoes 18.603
lfemur -5.16893 3.89425 -19.3968
ltibia 27.5365
lfoot -17.2965 8.86413
ltoes -6.62891
55
root 50.563 16.589 -7.71452 55.2416 -88.0363 -56.8963
lowerback 0.437156 0.229506 0.187543
upperback 2.75492 0.261891 0.595592
thorax 2.57745 0.114874 0.510039
lowerneck -9.73818 -3.04471 -3.06334
upperneck 5.72129 -4.47819 8.91638
head 3.57304 -1.89973 2.94601
rclavicle -4.06266e-015 -4.91992e-015
rhumerus -33.8999 -8.42241 -84.8311
rradius 29.7128
rwrist -4.33928
rhand -24.1493 3.08519
rfingers 7.12502
rthumb 2.33314 -26.8818
lclavicle -4.06266e-015 -4.91992e-015
lhumerus -29.3531 8.04482 85.351
lradius 26.4614
lwrist 9.30056
lhand -18.1779 17.0306
lfingers 7.12502
lthumb 8.09859 46.8554
rfemur -8.78321 -1.22113 24.3222
rtibia 35.4751
rfoot -27.132 -10.0623
rtoes 18.6188
lfemur -5.17853 3.90278 -19.398
ltibia 27.5351
lfoot -17.2921 8.87307
ltoes -6.64988
56
root 50.5637 16.5892 -7.71531 55.4955 -88.0483 -57.1465
lowerback 0.445117 0.231629 0.175237
upperback 2.74479 0.265124 0.595982
thorax 2.56245 0.116295 0.517325
lowerneck -9.73328 -3.04317 -3.06025
upperneck 5.72272 -4.47667 8.91583
head 3.5725 -1.89904 2.94549
rclavicle -2.86374e-015 -2.48481e-015
rhumerus -33.9063 -8.41602 -84.8311
rradius 29.7175
rwrist -4.33939
rhand -24.1513 3.0909
rfingers 7.12502
rthumb 2.33127 -26.8761
lclavicle -2.86374e-015 -2.48481e-015
lhumerus -29.3669 8.03539 85.3508
lradius 26.4636
lwrist 9.30733
lhand -18.1756 17.0495
lfingers 7.12502
lthumb 8.1009 46.8742
rfemur -8.7958 -1.21374 24.3204
rtibia 35.4823
rfoot -27.1305 -10.0597
rtoes 18.6358
lfemur -5.18174 3.9057 -19.4018
ltibia 27.5297
lfoot -17.2895 8.88658
ltoes -6.67372
57
root 50.5643 16.5893 -7.71601 55.7481 -88.0601 -57.3974
lowerback 0.454999 0.23421 0.164676
upperback 2.73367 0.268995 0.595515
thorax 2.54536 0.118096 0.522752
lowerneck -9.72255 -3.04102 -3.05861
upperneck 5.72069 -4.47428 8.91872
head 3.57001 -1.89804 2.94639
rclavicle -2.99109e-015 -7.85199e-015
rhumerus -33.9168 -8.41067 -84.8304
rradius 29.7215
rwrist -4.33959
rhand -24.1539 3.09472
rfingers 7.12502
rthumb 2.3287 -26.8723
lclavicle -2.99109e-015 -7.85199e-015
lhumerus -29.3736 8.05936 85.3395
lradius 26.4427
lwrist 9.27629
lhand -18.1671 17.0586
lfingers 7.12502
lthumb 8.10907 46.883
rfemur -8.8045 -1.21342 24.3163
rtibia 35.4873
rfoot -27.1261 -10.0501
rtoes 18.6473
lfemur -5.17966 3.90302 -19.4067
ltibia 27.5215
lfoot -17.2908 8.90186
ltoes -6.67785
58
root 50.5648 16.5894 -7.71667 56.0041 -88.0707 -57.6531
lowerback 0.465074 0.236955 0.155883
upperback 2.72209 0.273079 0.594772
thorax 2.52768 0.120054 0.526905
lowerneck -9.71537 -3.03858 -3.05986
upperneck 5.72555 -4.47209 8.92641
head 3.57039 -1.89675 2.94916
rclavicle -2.33572e-015 -8.94531e-016
rhumerus -33.9294 -8.40616 -84.8292
rradius 29.724
rwrist -4.3394
rhand -24.1562 3.09553
rfingers 7.12502
rthumb 2.3265 -26.8715
lclavicle -2.33572e-015 -8.94531e-016
lhumerus -29.3798 8.08722 85.3263
lradius 26.4172
lwrist 9.23978
lhand -18.1566 17.06
lfingers 7.12502
lthumb 8.11923 46.884
rfemur -8.80942 -1.21868 24.3118
rtibia 35.4899
rfoot -27.1216 -10.0327
rtoes 18.6628
lfemur -5.17389 3.89609 -19.4111
ltibia 27.5121
lfoot -17.2958 8.9191
ltoes -6.67472
